<svg xmlns="http://www.w3.org/2000/svg" id="Layer_1" data-name="Layer 1" viewBox="0 0 378 127.1"><defs><style> .cls-1 { fill: #ff9015; } .cls-1, .cls-2 { stroke-width: 0px; } .cls-2 { fill: #00205c; } </style></defs><path class="cls-2" d="M200.06,22.74h-7.85v34.35h7.85V22.74ZM310.94,29.52h7.85s16.11,0,16.11,0l1.39-6.77h-40.27v6.77h14.92ZM168.89,65.87c-13.4,0-21.84,6.77-21.84,18.25s8.44,18.25,21.84,18.25,21.84-6.77,21.84-18.25-8.44-18.25-21.84-18.25ZM168.89,95.61c-8.54,0-13.84-4.12-13.84-11.48s5.35-11.48,13.84-11.48,13.84,4.12,13.84,11.48-5.35,11.48-13.84,11.48ZM310.94,57.09h7.85v-23.04h-7.85v23.04ZM158.48,29.51h25.58l1.41-6.77h-34.84v6.78h7.85ZM158.48,43.4h22.73l1.38-6.77h-24.1v-.02h-7.85v20.48h7.85v-13.69ZM265.83,80.15c-6.82-.54-11.73-.83-11.73-3.77,0-3.14,5.69-3.98,10.35-3.93,5.59.05,10.25,1.23,14.03,4.12l4.32-5.44c-4.37-3.39-10.85-5.25-18.35-5.25-10.6,0-18.25,3.92-18.25,11.09s9.12,9.52,18.94,10.35c7.9.68,11.44,1.47,11.44,4.31s-3.54,4.18-10.5,4.18-12.47-1.82-16.68-5.7l-4.52,5.35c5.25,4.47,12.32,6.92,21,6.92,12.17,0,18.6-4.71,18.6-11.48,0-7.56-7.71-9.86-18.65-10.75ZM320.99,101.3h7.85v-23h-7.85v23ZM343.11,101.3h27.83l1.37-6.57h-21.4v-7.09h22.81l1.38-6.57h-31.99v20.24ZM306.07,66.95v6.77h14.92s7.85,0,7.85,0h0s47.74,0,47.74,0l.04-.2h0l1.37-6.57h-71.93ZM239.11,44.87c5.69-1.32,9.57-4.95,9.57-10.79,0-7.46-6.33-11.33-14.72-11.33h-23.7v6.57h12.46s10.81,0,10.81,0c4.12,0,7.16.98,7.16,4.81s-3.04,4.81-7.16,4.81h-15.51s-7.75-.01-7.75-.01v18.17h7.8v-11.68h12.42l9.86,11.68h9.37l-10.6-12.22ZM230.24,90.5l-23.16-23.55h-8.34v34.35h7.61v-24.83l24.63,24.83h6.87v-34.35h-7.6v23.55ZM291.81,101.3h7.85v-34.35h-7.85v34.35ZM274.7,35.94c-6.82-.54-11.73-.83-11.73-3.77,0-3.14,5.69-3.98,10.35-3.93,5.59.05,10.25,1.23,14.03,4.12l4.32-5.44c-4.37-3.39-10.85-5.25-18.35-5.25-10.6,0-18.25,3.92-18.25,11.09s9.12,9.52,18.94,10.36c7.9.68,11.44,1.47,11.44,4.31s-3.54,4.17-10.5,4.17-12.46-1.81-16.68-5.69l-4.52,5.35c5.25,4.47,12.32,6.92,21,6.92,12.17,0,18.6-4.71,18.6-11.48,0-7.56-7.71-9.86-18.65-10.75Z"/><path class="cls-1" d="M16.57,0H0l26.13,127.09h16.53c-.02-.06-.03-.13-.04-.19L16.57,0ZM119.91,46.16l4.96-24.49h-23.78l3.77-21.67H28.13l4.96,24.33h67.46l-2.25,13.21h-29.37l-33.15.12,5.87,27.99,22.26-.12h28.96l-.09.36c-4.12,12.77-17.06,15.87-20.98,17.36-1.97.75-6.36,1.53-10.26,2.12l-.04.02h49.87l5.61-25.83h-22.59l2.35-13.4h23.15Z"/><path class="cls-2" d="M340.02,26.16c0-1.89,1.52-3.39,3.39-3.39s3.39,1.5,3.39,3.39-1.5,3.39-3.39,3.39-3.39-1.52-3.39-3.39ZM340.58,26.16c0,1.55,1.26,2.83,2.83,2.83s2.83-1.28,2.83-2.83-1.26-2.83-2.83-2.83-2.83,1.25-2.83,2.83ZM343.31,26.58h-.62v1.53h-.59v-3.88h1.58c.75,0,1.31.46,1.31,1.18,0,.86-.77,1.15-.99,1.15l1.04,1.55h-.72l-1.01-1.53ZM342.69,24.72v1.34h.99c.43,0,.7-.26.7-.66,0-.43-.27-.69-.7-.69h-.99Z"/></svg>